/* XPM */
static char *result[] = {
/* columns rows colors chars-per-pixel */
"100 100 82 1 ",
"  c black",
". c #010000",
"X c #050201",
"o c #090402",
"O c #0A0503",
"+ c #100804",
"@ c #391C0E",
"# c #512814",
"$ c #783C1E",
"% c #7B3E1F",
"& c #7C4021",
"* c #070E54",
"= c #070E56",
"- c #080D51",
"; c #080E50",
": c #080E51",
"> c #080F51",
", c #080F52",
"< c #080B55",
"1 c #080D54",
"2 c #080F54",
"3 c #080E55",
"4 c #090F55",
"5 c #090D57",
"6 c #090E56",
"7 c #070F58",
"8 c #070E59",
"9 c #070F5A",
"0 c #070F5B",
"q c #070F5C",
"w c #090E5A",
"e c #080F5A",
"r c #080F5B",
"t c #090F5B",
"y c #080E5C",
"u c #090E5C",
"i c #080F5C",
"p c #090F5C",
"a c #080F5D",
"s c #090F5D",
"d c #0A0F5C",
"f c #0A0F5D",
"g c #0A0D5F",
"h c #080F5E",
"j c #090F5E",
"k c #090E5F",
"l c #0A0E5E",
"z c #0B0E5E",
"x c #0A0F5E",
"c c #0A0E5F",
"v c #08105A",
"b c #09105A",
"n c #08105B",
"m c #09105B",
"M c #09115B",
"N c #09105C",
"B c #08105D",
"V c #09105D",
"C c #0A105C",
"Z c #0A115C",
"A c #0A105D",
"S c #0A105E",
"D c #8F3E35",
"F c #913F35",
"G c #844221",
"H c #874321",
"J c #894422",
"K c #904724",
"L c #984334",
"P c #B0582C",
"I c #B45A2D",
"U c #C05D34",
"Y c #CF6734",
"T c #D5733D",
"R c #9B705A",
"E c #AD7040",
"W c #EB9C5A",
"Q c #EEA05E",
"! c #F4AB66",
"~ c #FDBC72",
"^ c #FFBF75",
"/ c #FEC787",
/* pixels */
"ZZZZZZZZZZZZZZZZZZZZZZZZZZZZZZZZZZZZZZZZZZZZZZZZZZZZZZZZZZZZZZZZZZZZZZZZZZZZZZZZZZZZZZZZZZZZZZZZZZZZ",
"ZZZZZZZZZZZZZZZZZZZZZZZZZZZZZZZZZZZZZZZZZZZZZZZZZZZZZZZZZZZZZZZZZZZZZZZZZZZZZZZZZZZZZZZZZZZZZZZZZZZZ",
"ZZZZZZZZZZZZZZZZZZZZZZZZZZZZZZZZZZZZZZZZZZZZZZZZZZZZZZZZZZZZZZZZZZZZZZZZZZZZZZZZZZZZZZZZZZZZZZZZZZZZ",
"ZZZZZZZZZZZZZZZZZZZZZZZZZZZZZZZZZZZZZZZR$$^^^^^^^^^^^^^^^^^^/ZZZZZZZZZZZZZZZZZZZZZZZZZZZZZZZZZZZZZZZ",
"ZZZZZZZZZZZZZZZZZZZZZZZZZZZZZZZZZZZZZZZR$$^^^^^^^^^^^^^^^^^^/ZZZZZZZZZZZZZZZZZZZZZZZZZZZZZZZZZZZZZZZ",
"ZZZZZZZZZZZZZZZZZZZZZZZZZZZZZZZZZZZZZZZR$$^^^^^^^^^^^^^^^^^^/ZZZZZZZZZZZZZZZZZZZZZZZZZZZZZZZZZZZZZZZ",
"ZZZZZZZZZZZZZZZZZZZZZZZZZZZZZZZZZZ$$$^^^^^^^^^^^^^^^^^^^^^^^^^^^^^ZZZZZZZZZZZZZZZZZZZZZZZZZZZZZZZZZZ",
"ZZZZZZZZZZZZZZZZZZZZZZZZZZZZZZZZZZ$$$^^^^^^^^^^^^^^^^^^^^^^^^^^^^^ZZZZZZZZZZZZZZZZZZZZZZZZZZZZZZZZZZ",
"ZZZZZZZZZZZZZZZZZZZZZZZZZZZZZZZZZZEEE^^^^^^^^WWWWWWWWWWWWWWWQ^^^^^ZZZZZZZZZZZZZZZZZZZZZZZZZZZZZZZZZZ",
"ZZZZZZZZZZZZZZZZZZZZZZZZZZZZZZZq$$^^^^^^^^^^^YYYYYYYYYYYYYYYT^^^^^^^ZZbZZZZZZZZZZZZZZZZZZZZZZZZZZZZZ",
"ZZZZZZZZZZZZfCZZZZZZZZZZZZZZZ9ra$$^^^^^^^^^^^YYYYYYYYYYYYYYYT^^^^^^^ZbbZZZZZZZZZZZZZZZZZZZZZZZZZZZZZ",
"ZZZZZZZZZZCfCCZZZZZZZZZZZZZZm$$&^^^^^^^^^^DDDDDDDDDDDDDDDDYYYYY^^^^^^^^ZZZZZZZZZZZZZZZZZZZZZZZZZZZZZ",
"ZZZZZZZZZCfCeeZZZZZZZZZZZZZZN$$&^^^^^^^^^^DDDDDDDDDDDDDDDDYYYYY^^^^^^^^Z,Z4ZZZZZZZZZZZZZZZZZZZZZZZZZ",
"ZZZZZZZZZZvemmZZZZZZZZZZZNNNN$$&^^^^^^^^^^DDDDDDDDDDDDDDDDYYYYY^^^^^^^^,,,ZZZZZZZZZZZZZZZZZZZZZZZZZZ",
"ZZZZZZZZZvvZNmZZZZZZZZZZZm$$$^^^^^^^^^^^^^ZZZZZZZZZZZZZDDDDDLYYYYY^^^^^^^^,ZZZZZZZZZZZZZZZZZZZZZZZZZ",
"ZZZZZZZZZZZNNmZZZZZZZZZZZr$$$^^^^^^^^^^^^^ZZZZZZZZZZZZZDDDDDLYYYYY^^^^^^^^ZZZZZZZZZZZZZZZZZZZZZZZZZZ",
"ZZZZZZZZZZNVNNZZZZZZZZZZZt$$$^^^^^^^^^^ZZZZZZZZZZZZZZZZZZZDDDDDYYYYY!^^^^^bZZZZZZZZZZZZZZZZZZZZZZZZZ",
"ZZZZZZZZZCtmmmmZZZZZZZZZZi$$$^^^^^^^^^^ZZZZZZZZZZZZZZZZZZZDDDDDYYYYY!^^^^^ZZZZZZZZZZZZZZZZZZZZZZZZZZ",
"ZZZZZZZZvvZZverZZZZZZZZZZm$$$^^^^^^^^^^ZZZZZZZZZZZZZZZZZZZZZZDDYYYYY!^^^^^5ZZZZZZZZZZZZZZZZZZZZZZZZZ",
"ZZZZZZZZZZvenCCZZZZZZZZZAN$$$^^^^^^^^ZZZZZZZZZZZZZZZZZZZZZZZZDDDDDYYYYY^^^lZZZZZZZZZZZZZZZZZZZZZZZZZ",
"ZZZZZZZZZZZZCCrZZZZZZZZZMZ$$$^^^^^^^^ZZZZZZZZZZZZZZZZZZZZZZZZDDDDDYYYYY^^^rZZZZZZZZZZZZZZZZZZZZZZZZZ",
"ZZZZZZZZZZZZZzxZZZZZZZZZZM$$$^^^^^^^^ZZZZZZZZZZZZZZZZZZZZZZZZDDDDDYYYYY^^^aZZZZZZZZZZZZZZZZZZZZZZZZZ",
"ZZZZZZZZZZZxxxZZZZZZZZZZ$$^^^^^^^^ZZZZZZZZZZZZZZZZZZZZZZZZZZZZZDDDDDUYY^^^^^ZZZZZZZZZZZZZZZZZZZZZZZZ",
"ZZZZZZZZZZxxAvZZZZZZZZZZ$$^^^^^^^^ZZZZZZZZZZZZZZZZZZZZZZZZZZZZZDDDDDUYY^^^^^ZZZZZZZZZZZZZZZZZZZZZZZZ",
"ZZZZZZZZZZZbrZZZZZZZZZZA$$^^^^^^^^ZZZZZZZZZZZZZZZZZZZZZZZZZZZZZDDDDDUYY^^^^^ZZZZZZZZZZZZZZZZZZZZZZZZ",
"ZZZZZZZZZZbMZZZZZZZZZZZr$$^^^^^^^^ZZZZZZZZZZZZZZZZZZZZZZZZZZZZZDDDDDUYY^^^^^ZZZZZZZZZZZZZZZZZZZZZZZZ",
"ZZZZZZZZZZZZZZZZZZZZZZZx$$^^^^^^^^ZZZZZZZZZZZZZZZZZZZZZZZZZZZZZDDDDDUYY^^^^^ZZZZZZZZZZZZZZZZZZZZZZZZ",
"ZZZZZZZZZZZZmZZZZZZZZZZp$$^^^^^^^^ZZZZZZZZZZZZZZZZZZZZZZZZZZZZZDDDDDUYY^^^^^ZZZZZZZZZZZZZZZZZZZZZZZZ",
"ZZZZZZZZZZxtZZZZZZZZZZZt$$^^^^^^^^ZZZZZZZZZZZZZZZZZZZZZZZZZZZZZDDDDDUYY^^^^^ZZZZZZZZZZZZZZZZZZZZZZZZ",
"ZZZZZZZZZbMZZZZZZZZZZZZt$$^^^^^^^^ZZZZZZZZZZZZZZZZZZZZZZZZZZZZZDDDDDUYY^^^^^ZZZZZZZZZZZZZZZZZZZZZZZZ",
"ZZZZZZZZZZZbrZZZZZZZZZZl$$^^^^^^^^ZZZZZZZZZZZZZZZZZZZZZZZZZZZZZDDDDDUYY^^^^^AZZZZZZZZZZZZZZZZZZZZZZZ",
"ZZZZZZZZZZZZZZZZZZZZZZZN$$^^^^^^^^ZZZZZZZZZZZZZZZZZZZZZZZZZZZZZDDDDDUYY^^^^^AZZZZZZZZZZZZZZZZZZZZZZZ",
"ZZZZZZZZZZZZZZ4ZZZZZZZZm$$^^^^^~YYYYYYYYYYYYYYYYYYYYYYYYYYYYYYYYYYYYYYY^^^^^NZZZZZZZZZZbZZZZZZZZZZZZ",
"ZZZZZZZZZZZZZ4ZZZZZZZZZm$$^^^^^~YYYYYYYYYYYYYYYYYYYYYYYYYYYYYYYYYYYYYYY^^^^^NZZZZZZZZbZZZZZZZZZZZZZZ",
"ZZZZZZZZZZZZZZZ,ZZZZZZZy$$^^^^^~YYYYYYYYYYYYYYYYYYYYYYYYYYYYYYYYYYYYYYY^^^^^MZZZZZZZZbZ4ZZbZZZZZZZZZ",
"ZZZZZZZZZZZZZZ,,ZZZZZZZ0$$YYYYYYYYYYYYYYYYYYYYYYYYYYYYYYYYYYYYYYYYYYYYYYYY^^MZZZZZZZZ4ZZZZZZZZZZZZZZ",
"ZZZZZZZZZZZZZbZ,,ZZZZZZ9$$YYYYYYYYYYYYYYYYYYYYYYYYYYYYYYYYYYYYYYYYYYYYYYYY^^bZZZZZZZZZZ,Z4ZbZZZZZZZZ",
"ZZZZZZZZZZZZ4ZZZ,ZZZZZZi$$YYYYYYYYYYYYYYYYYYYYYYYYYYYYYYYYYYYYYYYYYYYYYYYY^^ZZseCZZZZZ,,,Z4ZZZZZZZZZ",
"ZZZZZZZZZZZZZZ444ZZZN$$$YYYYYYYYYYYYYYYYYYYYYYYYYYYYYYYYYYYYYYYYYYYYYYYYYYYYYYYrbZZZZ,,,,,4ZZZZZZZZZ",
"ZZZZZZZZZZZZZZZZbx=6m$$$YYYYYYYYYYYYYYYYYYYYYYYYYYYYYYYYYYYYYYYYYYYYYYYYYYYYYYYpMZZZbZ,,,ZZZZZZZZZZZ",
"ZZZZZZZZZZZZZZZZZf$$$YYYYYYYYDDFYYYYYYYYYYYYYYYYYYYYYYYYYYYYYYYYYYYYYYYDDDYYYYYYYYZ4ZZZ,ZbZZZZZZZZZZ",
"ZZZZZZZZZZZZZZZZAp$$$YYYYYYYYDDFYYYYYYYYYYYYYYYYYYYYYYYYYYYYYYYYYYYYYYYDDDYYYYYYYYZZZ444ZZZZZZZZZZZZ",
"ZZZZZZZZZZZZZZZZAi$$$YYYYYYYYDDFYYYYYYYYYYYYYYYYYYYYYYYYYYYYYYYYYYYYYYYDDDYYYYYYYYZZZZZbZ44ZZZZZZZZZ",
"ZZZZZZZZZZZZZZZZCa$$$YYYYYYYYDDFYYYYYYYYYYYYYYYYYYYYYYYYYYYYYYYYYYYYYYYDDDYYYYYYYYZZZZZZZZZZZZZZZZZZ",
"ZZZZZZZZZZZZZZZZpC$$$YYYYYYYYDDFYYYYYYYYYYYYYYYYYYYYYYYYYYYYYYYYYYYYYYYDDDYYYYYYYYZZZZZZZZZZZZZZZZZZ",
"ZZZZZZZZZZZZZZZAaM$$$YYYYYYYYDDFYYYYYYYYYYYYYYYYYYYYYYYYYYYYYYYYYYYYYYYDDDYYYYYYYYZZZZZZZZZZZZZZZZZZ",
"ZZZZZZZZZZZZZZZxiA$$$YYYDDYYYDDFYYYYYYYYYYYYYYY      $$YYYYYYYYYYYYYYYYDDDYYDDDYYYZZZZZZZZZZZZZZZZZZ",
"ZZZZZZZZZZZZZZZppA$$$YYYDDYYYDDFYYYYYYYYYYYYYYY      $$YYYYYYYYYYYYYYYYDDDYYDDDYYYZZZZZZZZZZZZZZZZZZ",
"ZZZZZZZZZZZZZZAipM$$$YYYDDYYYDDFYYYYYYYYYYYYYOOOOOOOO  $$$YYYYYYYYYYYYYDDDYYDDDYYYZZZZZZZZZZZZZZZZZZ",
"ZZZZZZZZZZZZZZxrxM$$$YYYDDYYYDDFYYYYYYYYYYYYYOOOOOOOO  $$$YYYYYYYYYYYYYDDDYYDDDYYYZZZZZZZZZZZZZZZZZZ",
"ZZZZZZZZZZZZZAftNZ$$$YYYDDYYYDDFYYYYYYYYYYYYYOOOOOOOO  $$$YYYYYYYYYYYYYDDDYYDDDYYYZZZZZZZZZZZZZZZZZZ",
"ZZZZZZZZZZZZZxaxNv$$$YYYDDYYYDDFYYYYYYYYYYYYYOOOOOOOOOO$$$YYYYYYYYYYYYYDDDYYDDDYYYZZZZAZZZZZZZZZZZZZ",
"ZZZZZZZZZZZZZCiZsg$$$YYYDDYYYDDFYYYYYYYYYYYYYOOOOOOOOOO$$$YYYYYYYYYYYYYDDDYYDDDYYYZZAZxZZZZZZZZZZZZZ",
"ZZZZZZZZZZZZZthZjc$$$YYYDDYYYDDFYYYYYYYYYYJJJOOOOOOOOOO###PPIYYYYYYYYYYDDDYYDDDYYYZAxZmZZAZZZZZZZZZZ",
"ZZZZZZZZZZZZbpjZke$$$YYYDDYYYDDFYYYYYYYYYYOOOOOOOOOOOOOOOO$$GYYYYYYYYYYDDDYYDDDYYYZxmAbZZxZZZZZZZZZZ",
"ZZZZZZZZZZbZZajxtM$$$YYYDDYYYDDFYYYYYYYYYYOOOOOOOOOOOOOOOO$$GYYYYYYYYYYDDDYYDDDYYYZNtAZZMAAZZZZZZZZZ",
"ZZZZZZZZZbbZ2Bjuvn$$$YYYDDYYYDDFYYYYYYYYYYYYYOOOOOOOOOO$$$YYYYYYYYYYYYYDDDYYDDDYYYAvMZZZtMxZZZZZZZZZ",
"ZZZZZZZZZZ4ZbtMmtN$$$YYYDDYYYDDFYYYYYYYYYYYYYOOOOOOOOOO$$$YYYYYYYYYYYYYDDDYYDDDYYYtvZZZZZrAZZZZZZZZZ",
"ZZZZZZZZZ4ZZ>t3v8Z$$$YYYDDYYYDDFYYYYYYYYYYYYYOOOOOOOOOO$$$YYYYYYYYYYYYYDDDYYDDDYYYNpZZZZZeZZZZZZZZZZ",
"ZZZZZZZZZZZ,>1x*AZ$$$YYYDDYYYDDFYYYYYYYYYYYYYYYOOOOOO$$YYYYYYYYYYYYYYYYDDDYYDDDYYYvwZZZZAmZZZZZZZZZZ",
"ZZZZZZZZZZ,,;1:*ZM$$$YYYDDYYYDDFYYYYYYYYYYYYYYYOOOOOO$$YYYYYYYYYYYYYYYYDDDYYDDDYYY*AMMZZpAZZZZZZZZZZ",
"ZZZZZZZZZbZ,;<nlZM$$$YYYDDYYYDDFYYYYYYYYYYYYYYY......$$YYYYYYYYYYYYYYYYDDDYYDDDYYY*ZMMAZrMZZZZZZZZZZ",
"ZZZZZZZZ4ZZZ-m7AMM$$$YYYDDYYYDDFYYYYYYYYYYYYYYY      $$YYYYYYYYYYYYYYYYDDDYYDDDYYYAZMMxAnbZZZZZZZZZZ",
"ZZZZZZZZZZ445vnZMM$$$YYYDDYYYDDFYYYYYYYYYYYYYYY      $$YYYYYYYYYYYYYYYYDDDYYDDDYYYAMMZArMMZZZZZZZZZZ",
"ZZZZZZZZZZZZev64MM$$$YYYDDYYYDDFYYYYYYYYYYYYYYY      $$YYYYYYYYYYYYYYYYDDDYYDDDYYYZMMAZrMZZZZZZZZZZZ",
"ZZZZZZZZZZZZvvZMMZ$$$YYYDDYYYDDFYYYYYYYYYYYYYYY      $$YYYYYYYYYYYYYYYYDDDYYDDDYYY4MMAnMMZZZZZZZZZZZ",
"ZZZZZZZZZZZZrxZMMA$$$YYYDDYYYDDFYYYYYYYYYYYYYYY      $$YYYYYYYYYYYYYYYYDDDYYDDDYYYMMZAfMMZZZZZZZZZZZ",
"ZZZZZZZZZZZZvZMMZA$$$YYYDDYYYDDFYYYYYYYYYYYYY          $$$YYYYYYYYYYYYYDDDYYDDDYYYMMAtMMZZZZZZZZZZZZ",
"ZZZZZZZZZZZMxZMMAA$$$YYYDDYYYDDFYYYYYYYYYYYYY          $$$YYYYYYYYYYYYYDDDYYDDDYYYMZdAbbZZZZZZZZZZZZ",
"ZZZZZZZZZZZbxMMZxx$$$YYYDDYYYDDFYYYYYYYYYYooo          XXX%%HYYYYYYYYYYDDDYYDDDYYYMAxMMZZZZZZZZZZZZZ",
"ZZZZZZZZZZZbxbMAZN$$$YYYDDYYYDDFYYYYYYYYYY                $$GYYYYYYYYYYDDDYYDDDYYYZfZMMZZZZZZZZZZZZZ",
"ZZZZZZZZZZZbZbbxZv$$$YYYDDYYYDDFYYYYYYYYYY                $$GYYYYYYYYYYDDDYYDDDYYYhZbbZZZZZZZZZZZZZZ",
"ZZZZZZZZZZZZZbbSZb$$$YYYDDYYYDDFYYYYYYY@                    +$$YYYYYYYYDDDYYDDDYYYAMMZZZZZZZZZZZZZZZ",
"ZZZZZZZZZZZZZZZxZb$$$YYYDDYYYDDFYYYYYYY@                    +$$YYYYYYYYDDDYYDDDYYYMMZZZZZZZZZZZZZZZZ",
"ZZZZZZZZZZZZZZZZZZ$$$YYYDDYYYDDFYYYYYYY@                    +$$YYYYYYYYDDDYYDDDYYYMMZZZZZZZZZZZZZZZZ",
"ZZZZZZZZZZZZZZZZZZ$$$YYYDDYYYDDFYYYYY                          $$$YYYYYDDDYYDDDYYYbZZZZZZZZZZZZZZZZZ",
"ZZZZZZZZZZZZZZZZZZ$$$YYYDDYYYDDFYYYYY                          $$$YYYYYDDDYYDDDYYYZZZZZZZZZZZZZZZZZZ",
"ZZZZZZZZZZZZZZZZZZ$$$YYYDDYYYDDFYYYYYYYK$$$$$$$$$$$$$$$$$$$$$$$YYYYYYYYDDDYYDDDYYYZZZZZZZZZZZZZZZZZZ",
"ZZZZZZZZZZZZZZZZZZ$$$YYYDDYYYDDFYYYYYYYK$$$$$$$$$$$$$$$$$$$$$$$YYYYYYYYDDDYYDDDYYYZZZZZZZZZZZZZZZZZZ",
"ZZZZZZZZZZZZZZbZZZ$$$YYYDDYYYDDFYYYYYYYK$$$$$$$$$$$$$$$$$$$$$$$YYYYYYYYDDDYYDDDYYYZZZZZZZZZZZZZZZZZZ",
"ZZZZZZZZZZZZbZZZZZ$$$YYYDDYYYDDFYYYYYYYYYYYYYYYYYYYYYYYYYYYYYYYYYYYYYYYDDDYYDDDYYYZZZZZZZZZZZZZZZZZZ",
"ZZZZZZZZZZZbbZ4ZZb$$$YYYDDYYYDDFYYYYYYYYYYYYYYYYYYYYYYYYYYYYYYYYYYYYYYYDDDYYDDDYYYZZbZZZZZZZZZZZZZZZ",
"ZZZZZZZZZZZZ4ZZZZZ$$$YYYDDYYYDDFYYYYYYYYYYYYYYYYYYYYYYYYYYYYYYYYYYYYYYYDDDYYDDDYYYZZZZZZZZZZZZZZZZZZ",
"ZZZZZZZZZZZ4ZZ,Z4Z$$$YYYDDYYYDDFYYYYYYYYYYYYYYYYYYYYYYYYYYYYYYYYYYYYYYYDDDYYDDDYYYZ4ZbZZZZZZZZZZZZZZ",
"ZZZZZZZZZZZZZ,,,Z4$$$YYYDDYYYDDFYYYYYYYYYYYYYYYYYYYYYYYYYYYYYYYYYYYYYYYDDDYYDDDYYY,Z4ZZZZZZZZZZZZZZZ",
"ZZZZZZZZZZZZ,,,,,4$$$YYYDDYYYDDFYYYYYYYYYYYYYYYYYYYYYYYYYYYYYYYYYYYYYYYDDDYYDDDYYY,,4ZZZZZZZZZZZZZZZ",
"ZZZZZZZZZZZbZ,,,ZZ$$$YYYDDYYYDDFYYYYYYYYYYYYYYYYYYYYYYYYYYYYYYYYYYYYYYYDDDYYDDDYYY,ZZZZZZZZZZZZZZZZZ",
"ZZZZZZZZZZ4ZZZ,ZbZ$$$YYYDDYYYDDFYYYYYYYYYYYYYYYYYYYYYYYYYYYYYYYYYYYYYYYDDDYYDDDYYYZbZZZZZZZZZZZZZZZZ",
"ZZZZZZZZZZZZ444ZZZ$$$YYYYYYYYYYYYYYYYYYYYYYYYYYYYYYYYYYYYYYYYYYYYYYYYYYYYYYYYYYYYYZZZZZZZZZZZZZZZZZZ",
"ZZZZZZZZZZZZZZbZ44$$$YYYYYYYYYYYYYYYYYYYYYYYYYYYYYYYYYYYYYYYYYYYYYYYYYYYYYYYYYYYYYZ44ZZZZZZZZZZZZZZZ",
"ZZZZZZZZZZZZZZZZZZ$$$YYYYYYYYYYYYYYYYYYYYYYYYYYYYYYYYYYYYYYYYYYYYYYYYYYYYYYYYYYYYYZZZZZZZZZZZZZZZZZZ",
"ZZZZZZZZZZZZZZZZZZ$$$$$$$$$$$$$$$$$$$$$$$$$$$$$$$$$$$$$$$$$$$$$$$$$$$$$$$$$$YYYYYYZZZZZZZZZZZZZZZZZZ",
"ZZZZZZZZZZZZZZZZZZ$$$$$$$$$$$$$$$$$$$$$$$$$$$$$$$$$$$$$$$$$$$$$$$$$$$$$$$$$$YYYYYYZZZZZZZZZZZZZZZZZZ",
"ZZZZZZZZZZZZZZZZZZZZZZZZZZZZZZZZZZZZZZZZZZZZZZZZZZZZZZZZZZZZZZZZZZZbbSZbbZZZZZZZZZZZZZZZZZZZZZZZZZZZ",
"ZZZZZZZZZZZZZZZZZZZZZZZZZZZZZZZZZZZZZZZZZZZZZZZZZZZZZZZZZZZZZZZZZZZZZxZbbZZZZZZZZZZZZZZZZZZZZZZZZZZZ",
"ZZZZZZZZZZZZZZZZZZZZZZZZZZZZZZZZZZZZZZZZZZZZZZZZZZZZZZZZZZZZZZZZZZZZZZZZZZZZZZZZZZZZZZZZZZZZZZZZZZZZ",
"ZZZZZZZZZZZZZZZZZZZZZZZZZZZZZZZZZZZZZZZZZZZZZZZZZZZZZZZZZZZZZZZZZZZZZZZZZZZZZZZZZZZZZZZZZZZZZZZZZZZZ",
"ZZZZZZZZZZZZZZZZZZZZZZZZZZZZZZZZZZZZZZZZZZZZZZZZZZZZZZZZZZZZZZZZZZZZZZZZZZZZZZZZZZZZZZZZZZZZZZZZZZZZ",
"ZZZZZZZZZZZZZZZZZZZZZZZZZZZZZZZZZZZZZZZZZZZZZZZZZZZZZZZZZZZZZZZZZZZZZZZZZZZZZZZZZZZZZZZZZZZZZZZZZZZZ",
"ZZZZZZZZZZZZZZZZZZZZZZZZZZZZZZZZZZZZZZZZZZZZZZZZZZZZZZZZZZZZZZZZZZZZZZZZZZZZZZZZZZZZZZZZZZZZZZZZZZZZ"
};
