/* XPM */
static char *_454945029934fa7adba2b36c5c4384f1EdmI81Aa7UE7DXH[] = {
/* columns rows colors chars-per-pixel */
"100 100 13 1 ",
"  c #070D50",
". c #070E54",
"X c #080E52",
"o c #080B55",
"O c #080E54",
"+ c #070E5B",
"@ c #070E5C",
"# c #080F5A",
"$ c #0A0F5D",
"% c #07105A",
"& c #09105B",
"* c #0A115C",
"= c #C8D41E",
/* pixels */
"****************************************************************************************************",
"****************************************************************************************************",
"****************************************************************************************************",
"****************************************************************************************************",
"****************************************************************************************************",
"******************************************$*********************************************************",
"****************************************$$**********************************************************",
"*************************************$$$$*$**$******************************************************",
"***************************$@@$$##*$$$$$$&**$************&**************&***************************",
"********************#**$#&#$&##@*$$$$#&+$***&$$********&**************&*****************************",
"************$*****#*$##&##&&&+#$*$$####$$*&*&&********&&*O**&********&&*O**&************************",
"***********$**@@$+##O#&#***&&&**&*&#+#*O*$&*&#$********O**************O*****************************",
"**********$*##&#$&.&**&&&&***&***&&##O*$&****#********O**X*O*&*******O**X*O*&***********************",
"**********&#&&&&&O&&X*O*#********&&&.$$O*O*&$#**********XXX*O**********XXX*O************************",
"*********&&**&&&&**XXX*O&&&&&#$#*&&*#&XXX&O&*#*********XXXXXO*********XXXXXO************************",
"*************&*&&*XXXXXO*#%&#+@**&&&#XXXXXO*&$********&*XXX**********&*XXX**************************",
"****************&#&XXX++##***@+#&&&$+$ XX***&********O***X*&********O***X*&*************************",
"**********#&&&&&O*$% ##$*$#####&&*&.#$#X&&&*#&*********OOO************OOO***$$**********************",
"********&&**&####$O.O*$##&*&&+$$**#+@..O***&#&***********&*OO***********&*OO************************",
"**********&#&**$#+##+&OO**&**@****$+##$&*OO&*&*************************$$$$$&$*$$*******************",
"**************##&&****$*&**&#+*&*&*#$#*****#&*****************$$$****$$$$*#$************************",
"*************$$&&****&&**&&$#$*&*#$#@$&**$&#===========*****$$$****$$$*&##$$**&&$$******************",
"***********$$$#&*$*&**&&&&*$+##**&+$#*&*===================$$$$#&$$$*##&***$*$*##*******************",
"**********$$*&&*&&**&&&*$$$#@&&&*$+@$&=======================##*$*$#$&*****$***&#$******************",
"***********&#*****&&&****#&+#*&*&$##===========================$$&&$$$***$$$***&$*******************",
"**********&&*****&&*$*&#*#&+#&*&$#===============================*##*$*$&&$$***&#*******************",
"****************&&*$*&&$#$&#$&**&=================================*#$*$&*&$$***&#$******************",
"************&**&&*$*&&*$#&+$&***===================================&#&$&&&$$***&#*******************",
"**********$#**&&*$*&&*$#$&#$&*=======================================&&$*&$$*$*&#*******************",
"*********&&**&&*$*&&**$#&@#$*=========================================&$*&$$***&#*******************",
"***********&#&&$*&&**$#$&@$&===========================================#$#$$*&*&$*******************",
"*************$#&.&*&*$#*$#$#===========================================***$**&*&#*******************",
"**************O*****$$$&#$&=============================================***&****&$*****&************",
"*************O**X*O*##$&#$===============================================*******&****&**************",
"***************XXX*O$$$$#=================================================**&*&*#***&&*O**&*********",
"**************XXXXXO#*#+$=================================================**&*&*#****O**************",
"*************&*XXX*$$&$+===================================================*&**#****O**X*O*&********",
"************O***X*$#$&+$===================================================***$#******XXX*O*********",
"**************OOO*$#**#=====================================================*&*#&****XXXXXO*********",
"****************&$.O&@#=====================================================**&$&***&*XXX***********",
"*****************$#*&+=======================================================*&****O***X*&**********",
"*****************$#*$+=======================================================*#&*****OOO************",
"*****************$**#$=======================================================**********&*OO*********",
"*****************$*&@$=======================================================**&********************",
"****************$*$$@=========================================================&*********************",
"****************$&$@$=========================================================&*********************",
"***************$$*&+&=========================================================&*********************",
"***************$$*&&$=================================================******************************",
"***************$$&*$&===================================********************************************",
"**************$#$&&**============================***************************************************",
"**************$#**#$$===================================********************************************",
"*************$$$*&$&#==================================================*****************************",
"**************$*$$*##=========================================================********$*************",
"*************#$*$$##*=========================================================******$*&*************",
"************&$$*$#***=========================================================*****$&*&**$**********",
"**********&**$$$#&#*&&=======================================================**&****#***&***********",
"*********&&*O*$$&&**&&=======================================================******&&***#&$*********",
"**********O*&#&&#**&&*=======================================================**O**#&*****#**********",
"*********O**X#O&+**&&*=======================================================******$*****#**********",
"***********XXO$.**&&*$*=====================================================*&*X*O&#*****&**********",
"**********XXXOX.*&&*$#&=====================================================O*XXX$.*&&**$***********",
"*********&*XXo&$*&&**#&&=================================================== OXXXXX.*&&**#&**********",
"********O***X&+*&&**$*&*===================================================&#$XXO&**&&$*&&**********",
"**********OOO&&*&&**&&**&=================================================* #**O&#*&&**#&&**********",
"************#&OO&&$#&&&&&=================================================*&#OOO##*&&**#&***********",
"************&&*&&**&&&&*$*===============================================&$OO$$+&OO&&*&&&***********",
"************#$*&&*#&&&***&&=============================================$***&$&*#*&&**$&&***********",
"************&*&&**$**$$&&&**===========================================$$***$$*#**&&*#&&************",
"***********&$*&&**&&********===========================================#$*&$$&&**&&*$*&&************",
"***********&$&&*$$&&*********=========================================*#**&$&$&**&&*$&&*************",
"***********&$&&***&***********=======================================*&#*$$*&&**&&*$*&&*************",
"***********&*&&$*&&*************===================================&&*&&$$$&&**&&*$*&&**************",
"*************&&**&&**************=================================&&**&$&&&&**&&*$*&&***************",
"***************$*&&**************&===============================&&***&*&&&&**&&*$&&****************",
"**********************************$&===========================&$#****&*&*&**&&*$*&&****************",
"**********************************&&*&=======================*#&&$$***&*****&&*$#&&*****************",
"*********************************#&$*&&*===================&***&#******&$#$*&&**&&******************",
"*********************************$#*&&**#&&*===========&&$*&&$**&&$$***&&#&&&*$$&&******************",
"*********************************$&*&&**&&&*&&***&&*****&&$*&&***&#*$****&&&&*&&&*******************",
"**************&******************+$*&&**&&**&&**#&*******&&$*&&**&&#*$*****$$$&&&&******************",
"************&******************&&&$&&**$#&****#*&&********&&**&&***#&**********&********************",
"***********&&*O**&************&&&.*&&**&#****&&*O**&*******&&$&&&O**+*$*******&&*O**&***************",
"************O******************O&&*&&$*&&*****O*************&&$O&&**&#*$*******O********************",
"***********O**X*O*&***********O*#O*O&#*&&****O**X*O*&********&O$*X&O*+&$******O**X*O*&**************",
"*************XXX*O**************XOX&O**&&******XXX*O*********&**XXX*O*#*$*******XXX*O***************",
"************XXXXXO*************XXOXXO*##******XXXXXO**********&XXXXXO*#&$******XXXXXO***************",
"***********&*XXX**************&*XXX&**#&*****&*XXX************&&XXX&&**&$*****&*XXX*****************",
"**********O***X*&************O***X&#**&&****O***X*&**********O*&*X$&&&*&&$***O***X*&****************",
"************OOO****************OOO**$*&&******OOO**************OOO#**&**#$*****OOO******************",
"**************&*OO***************&*OO***********&*OO************&&&OO&**&********&*OO***************",
"*****************************************************************&&&**&*&***************************",
"*****************************************************************&$&$*&&****************************",
"*****************************************************************&*&&***&***************************",
"*******************************************************************&&**&&***************************",
"*********************************************************************$*&&***************************",
"****************************************************************************************************",
"****************************************************************************************************",
"****************************************************************************************************",
"****************************************************************************************************",
"****************************************************************************************************"
};
